<?xml version="1.0" standalone="no"?>
<!DOCTYPE svg PUBLIC "-//W3C//DTD SVG 20010904//EN"
 "http://www.w3.org/TR/2001/REC-SVG-20010904/DTD/svg10.dtd">
<svg version="1.0" xmlns="http://www.w3.org/2000/svg"
 width="280.000000pt" height="280.000000pt" viewBox="0 0 280.000000 280.000000"
 preserveAspectRatio="xMidYMid meet">

<g transform="translate(0.000000,280.000000) scale(0.100000,-0.100000)"
fill="#000000" stroke="none">
<path d="M645 2650 c-3 -5 17 -34 44 -64 28 -31 53 -51 56 -45 4 5 1 16 -5 24
-16 20 12 65 40 65 27 0 25 16 -2 24 -36 9 -126 7 -133 -4z m67 -18 c11 -4 14
-12 9 -20 -6 -9 -12 -8 -26 8 -18 20 -13 24 17 12z"/>
<path d="M723 2448 c-56 -112 -210 -416 -343 -676 l-241 -473 108 3 108 3 138
273 139 272 154 0 154 0 0 -230 0 -231 103 3 102 3 3 628 2 627 -163 0 -162 0
-102 -202z m217 -213 l0 -205 -98 0 c-54 0 -101 2 -103 5 -5 4 192 405 199
405 1 0 2 -92 2 -205z"/>
<path d="M612 2563 c-10 -4 -52 -73 -52 -86 0 -2 27 -16 60 -32 62 -30 93 -27
51 4 -26 20 -21 41 9 41 25 0 50 10 50 21 0 5 -16 9 -35 9 -24 0 -35 5 -35 15
0 17 -30 34 -48 28z m23 -62 c-6 -21 -29 -28 -39 -13 -3 5 2 19 11 31 18 27
39 14 28 -18z"/>
<path d="M536 2419 c-52 -41 -20 -119 50 -119 38 0 64 29 64 72 0 21 -8 33
-32 48 -41 25 -49 25 -82 -1z m74 -29 c24 -24 25 -34 4 -54 -18 -19 -17 -19
-48 -4 -30 13 -42 43 -26 63 17 21 46 19 70 -5z"/>
<path d="M462 2284 c-27 -56 -28 -72 -2 -49 20 18 22 18 67 -4 30 -14 49 -19
56 -12 6 6 -9 19 -42 36 -41 21 -51 30 -46 45 12 39 -12 27 -33 -16z"/>
<path d="M416 2201 c-3 -4 17 -22 44 -39 53 -33 59 -42 36 -61 -11 -10 -23 -8
-55 8 -44 23 -61 26 -61 11 0 -13 74 -50 101 -50 43 0 65 63 32 92 -17 15 -77
48 -87 48 -3 0 -7 -4 -10 -9z"/>
<path d="M335 2040 c-14 -22 -25 -43 -25 -48 0 -8 104 -62 120 -62 19 0 10 21
-14 31 -30 14 -23 39 9 39 13 0 30 3 39 6 28 11 17 24 -19 24 -24 0 -35 5 -35
15 0 12 -28 35 -44 35 -3 0 -17 -18 -31 -40z m52 -11 c4 -22 -13 -43 -31 -36
-13 5 -14 11 -4 32 12 27 31 29 35 4z"/>
<path d="M1458 1553 c-3 -487 -3 -484 -60 -526 -33 -25 -113 -29 -152 -8 -39
21 -67 73 -73 136 -3 30 -11 55 -17 55 -22 0 -191 -20 -202 -24 -17 -7 2 -141
29 -200 49 -107 143 -168 280 -182 80 -8 184 9 247 41 61 31 134 112 155 173
26 77 36 256 33 627 l-3 350 -117 3 -117 3 -3 -448z"/>
<path d="M1890 1415 l0 -585 413 2 412 3 3 98 3 97 -296 0 -295 0 -2 483 -3
482 -117 3 -118 3 0 -586z"/>
<path d="M275 1920 c-19 -38 -22 -50 -11 -50 8 0 16 7 20 15 5 13 13 12 55
-10 58 -29 61 -30 61 -12 0 8 -22 24 -50 37 -41 19 -48 26 -40 41 7 11 7 20 0
24 -5 3 -21 -17 -35 -45z"/>
<path d="M220 1821 c-16 -30 -12 -59 9 -71 16 -8 26 -5 51 16 23 20 34 24 42
16 13 -13 -6 -42 -28 -42 -8 0 -14 -7 -14 -15 0 -21 26 -19 50 5 34 34 21 90
-20 90 -9 0 -27 -11 -40 -25 -13 -14 -27 -25 -32 -25 -16 0 -8 30 12 42 25 16
26 28 0 28 -10 0 -24 -9 -30 -19z"/>
<path d="M622 1735 c-18 -36 -32 -68 -32 -70 0 -3 33 -5 74 -5 l73 0 6 38 c4
20 9 52 13 70 l7 32 -55 0 -54 0 -32 -65z"/>
<path d="M787 1793 c-3 -5 -8 -36 -12 -70 l-7 -63 66 0 66 0 0 70 0 70 -54 0
c-30 0 -57 -3 -59 -7z"/>
<path d="M175 1730 c-8 -13 -9 -13 35 -36 l35 -19 -47 -3 c-25 -2 -52 -9 -58
-17 -9 -11 0 -20 49 -44 67 -34 71 -35 71 -21 0 6 -14 19 -32 30 -35 21 -29
27 31 32 19 2 36 8 38 14 5 16 -114 77 -122 64z"/>
<path d="M542 1565 c-18 -36 -32 -68 -32 -70 0 -3 44 -5 99 -5 l99 0 7 48 c3
26 9 57 12 70 5 21 3 22 -74 22 l-79 0 -32 -65z"/>
<path d="M751 1573 c-17 -87 -21 -83 69 -83 l80 0 0 70 0 70 -69 0 -68 0 -12
-57z"/>
<path d="M107 1580 c-18 -14 -27 -31 -27 -49 0 -61 91 -97 124 -49 49 69 -31
149 -97 98z m73 -28 c32 -26 20 -62 -20 -62 -47 0 -75 41 -48 68 17 17 42 15
68 -6z"/>
<path d="M35 1446 c-33 -33 -32 -59 6 -90 35 -30 56 -32 87 -10 17 12 22 24
20 47 -4 43 -26 47 -25 5 2 -27 -2 -34 -20 -36 -34 -5 -63 15 -63 44 0 17 7
28 20 31 22 6 26 18 10 28 -5 3 -21 -5 -35 -19z"/>
<path d="M456 1390 l-37 -70 130 0 129 0 6 28 c3 15 8 46 11 70 l7 42 -104 0
-104 0 -38 -70z"/>
<path d="M721 1397 c-6 -35 -11 -67 -11 -70 0 -4 43 -7 95 -7 l95 0 0 70 0 70
-84 0 -84 0 -11 -63z"/>
<path d="M2050 715 l0 -85 55 0 c42 0 55 3 55 15 0 11 -11 15 -40 15 l-40 0 0
70 c0 56 -3 70 -15 70 -12 0 -15 -16 -15 -85z"/>
<path d="M2160 785 c0 -9 9 -15 25 -15 24 0 25 -2 25 -70 0 -56 3 -70 15 -70
12 0 15 14 15 70 0 68 1 70 25 70 16 0 25 6 25 15 0 12 -14 15 -65 15 -51 0
-65 -3 -65 -15z"/>
<path d="M2320 715 l0 -85 44 0 c63 0 91 25 91 83 0 63 -24 87 -87 87 l-48 0
0 -85z m95 0 c0 -49 -1 -50 -32 -53 l-33 -3 0 56 0 56 33 -3 c31 -3 32 -4 32
-53z"/>
<path d="M2505 724 c-17 -43 -31 -81 -33 -86 -8 -18 28 -7 38 12 7 14 21 20
45 20 25 0 35 -5 40 -20 7 -22 35 -28 34 -7 0 6 -13 44 -28 82 -40 99 -57 98
-96 -1z m62 -20 c-3 -3 -12 -4 -20 -2 -11 2 -12 9 -5 28 l10 25 11 -23 c5 -12
8 -25 4 -28z"/>
<path d="M709 394 c-8 -10 -14 -40 -14 -74 0 -34 6 -64 14 -74 20 -24 24 -14
11 33 -8 30 -8 52 0 82 13 47 9 57 -11 33z"/>
<path d="M772 401 c-8 -4 -13 -19 -11 -32 1 -13 -1 -34 -5 -47 -11 -32 10 -54
48 -50 30 3 31 4 32 58 1 73 -22 98 -64 71z m38 -26 c0 -8 -7 -15 -15 -15 -16
0 -20 12 -8 23 11 12 23 8 23 -8z m5 -65 c0 -8 -8 -16 -17 -18 -13 -2 -18 3
-18 18 0 15 5 20 18 18 9 -2 17 -10 17 -18z"/>
<path d="M893 391 c-26 -22 -31 -43 -8 -35 12 5 15 -3 15 -40 0 -34 4 -46 15
-46 12 0 15 14 15 70 0 39 -3 70 -7 70 -5 -1 -18 -9 -30 -19z"/>
<path d="M980 385 c5 -14 10 -44 10 -65 0 -21 -5 -51 -10 -65 -8 -20 -7 -26 2
-23 7 3 19 24 27 48 12 38 12 49 0 84 -8 22 -20 41 -27 44 -9 3 -10 -3 -2 -23z"/>
<path d="M1102 398 c-27 -27 -7 -78 30 -78 10 0 18 -7 18 -16 0 -12 -7 -14
-32 -8 -29 6 -31 5 -19 -10 16 -19 52 -21 69 -4 18 18 15 94 -4 112 -18 19
-45 21 -62 4z m44 -44 c-5 -13 -10 -14 -18 -6 -6 6 -8 18 -4 28 5 13 10 14 18
6 6 -6 8 -18 4 -28z"/>
<path d="M1211 392 c-5 -10 -6 -24 -1 -32 5 -8 3 -21 -3 -32 -18 -28 3 -53 44
-53 28 0 35 4 37 24 2 13 -1 28 -6 33 -7 7 -7 16 1 28 8 14 8 22 -2 34 -18 22
-58 20 -70 -2z m49 -17 c0 -8 -7 -15 -15 -15 -16 0 -20 12 -8 23 11 12 23 8
23 -8z m5 -65 c0 -8 -8 -16 -17 -18 -13 -2 -18 3 -18 18 0 15 5 20 18 18 9 -2
17 -10 17 -18z"/>
<path d="M1321 392 c-5 -10 -6 -24 -1 -32 5 -8 3 -21 -3 -32 -17 -26 3 -52 41
-56 27 -3 32 1 38 23 4 15 2 31 -4 37 -7 7 -7 16 1 28 8 14 8 22 -2 34 -18 22
-58 20 -70 -2z m49 -17 c0 -8 -7 -15 -15 -15 -8 0 -15 7 -15 15 0 8 7 15 15
15 8 0 15 -7 15 -15z m5 -65 c0 -8 -8 -16 -17 -18 -13 -2 -18 3 -18 18 0 15 5
20 18 18 9 -2 17 -10 17 -18z"/>
<path d="M1453 391 c-26 -22 -31 -43 -8 -35 12 5 15 -3 15 -40 0 -34 4 -46 15
-46 12 0 15 14 15 70 0 39 -3 70 -7 70 -5 -1 -18 -9 -30 -19z"/>
<path d="M1548 389 c-22 -23 -23 -40 -3 -33 12 5 15 -3 15 -40 0 -34 4 -46 15
-46 12 0 15 14 15 70 0 75 -9 86 -42 49z"/>
<path d="M1723 391 c-29 -24 -30 -45 -3 -36 18 6 20 2 20 -39 0 -25 5 -46 10
-46 6 0 10 30 10 70 0 39 -3 70 -7 70 -5 -1 -18 -9 -30 -19z"/>
<path d="M1822 401 c-8 -4 -13 -19 -11 -32 1 -13 -1 -34 -5 -47 -11 -32 10
-54 48 -50 30 3 31 4 32 58 1 73 -22 98 -64 71z m38 -26 c0 -8 -7 -15 -15 -15
-16 0 -20 12 -8 23 11 12 23 8 23 -8z m5 -65 c0 -8 -8 -16 -17 -18 -13 -2 -18
3 -18 18 0 15 5 20 18 18 9 -2 17 -10 17 -18z"/>
<path d="M1926 388 c-31 -44 -14 -118 27 -118 33 0 47 19 47 63 0 72 -41 103
-74 55z m46 -53 c0 -40 -5 -50 -21 -40 -12 7 -15 78 -4 88 13 13 25 -11 25
-48z"/>
<path d="M2034 393 c-19 -20 -2 -32 20 -14 10 8 16 8 24 -2 8 -10 3 -22 -23
-52 -19 -21 -35 -42 -35 -47 0 -4 20 -8 45 -8 25 0 45 5 45 10 0 6 -8 10 -18
10 -30 0 -31 10 -6 35 26 26 31 54 12 73 -17 17 -44 15 -64 -5z"/>
<path d="M1630 320 c0 -5 11 -10 25 -10 14 0 25 5 25 10 0 6 -11 10 -25 10
-14 0 -25 -4 -25 -10z"/>
</g>
</svg>
